HIERARCHY
ROOT Hips
{
	OFFSET -0.001795 -0.223333 0.028219
	CHANNELS 6 Xposition Yposition Zposition Zrotation Yrotation Xrotation 
	JOINT LeftUpLeg
	{
		OFFSET 0.069520 -0.091406 -0.006815
		CHANNELS 3 Zrotation Yrotation Xrotation
		JOINT LeftLeg
		{
			OFFSET 0.034277 -0.375199 -0.004496
			CHANNELS 3 Zrotation Yrotation Xrotation
			JOINT LeftFoot
			{
				OFFSET -0.013596 -0.397961 -0.043693
				CHANNELS 3 Zrotation Yrotation Xrotation
				JOINT LeftToe
				{
					OFFSET 0.026358 -0.055791 0.119288
					CHANNELS 3 Zrotation Yrotation Xrotation
					End Site
					{
						OFFSET 0.000000 0.000000 0.000000
					}
				}
			}
		}
	}
	JOINT RightUpLeg
	{
		OFFSET -0.067670 -0.090522 -0.004320
		CHANNELS 3 Zrotation Yrotation Xrotation
		JOINT RightLeg
		{
			OFFSET -0.038290 -0.382569 -0.008850
			CHANNELS 3 Zrotation Yrotation Xrotation
			JOINT RightFoot
			{
				OFFSET 0.015774 -0.398415 -0.042312
				CHANNELS 3 Zrotation Yrotation Xrotation
				JOINT RightToe
				{
					OFFSET -0.025372 -0.048144 0.123348
					CHANNELS 3 Zrotation Yrotation Xrotation
					End Site
					{
						OFFSET 0.000000 0.000000 0.000000
					}
				}
			}
		}
	}
	JOINT Spine
	{
		OFFSET -0.002533 0.108963 -0.026696
		CHANNELS 3 Zrotation Yrotation Xrotation
		JOINT Spine1
		{
			OFFSET 0.005487 0.135180 0.001092
			CHANNELS 3 Zrotation Yrotation Xrotation
			JOINT Spine2
			{
				OFFSET 0.001457 0.052922 0.025425
				CHANNELS 3 Zrotation Yrotation Xrotation
				JOINT Neck
				{
					OFFSET -0.002778 0.213870 -0.042857
					CHANNELS 3 Zrotation Yrotation Xrotation
					JOINT Head
					{
						OFFSET 0.005152 0.064970 0.051349
						CHANNELS 3 Zrotation Yrotation Xrotation
						End Site
						{
							OFFSET 0.000000 0.000000 0.000000
						}
					}
				}
				JOINT LeftShoulder
				{
					OFFSET 0.078845 0.121749 -0.034090
					CHANNELS 3 Zrotation Yrotation Xrotation
					JOINT LeftArm
					{
						OFFSET 0.090977 0.030469 -0.008868
						CHANNELS 3 Zrotation Yrotation Xrotation
						JOINT LeftForeArm
						{
							OFFSET 0.259612 -0.012772 -0.027456
							CHANNELS 3 Zrotation Yrotation Xrotation
							JOINT LeftHand
							{
								OFFSET 0.249234 0.008986 -0.001171
								CHANNELS 3 Zrotation Yrotation Xrotation
								End Site
								{
									OFFSET 0.000000 0.000000 0.000000
								}
							}
						}
					}
				}
				JOINT RightShoulder
				{
					OFFSET -0.081759 0.118833 -0.038615
					CHANNELS 3 Zrotation Yrotation Xrotation
					JOINT RightArm
					{
						OFFSET -0.096012 0.032551 -0.009143
						CHANNELS 3 Zrotation Yrotation Xrotation
						JOINT RightForeArm
						{
							OFFSET -0.253742 -0.013329 -0.021401
							CHANNELS 3 Zrotation Yrotation Xrotation
							JOINT RightHand
							{
								OFFSET -0.255298 0.007772 -0.005559
								CHANNELS 3 Zrotation Yrotation Xrotation
								End Site
								{
									OFFSET 0.000000 0.000000 0.000000
								}
							}
						}
					}
				}
			}
		}
	}
}
MOTION
Frames: 17
Frame Time: 0.050000
-1.688504 0.933730 -0.558217 -7.712419 66.520337 -5.789161 7.241276 -1.265646 -2.613000 -7.135951 -0.784617 2.187450 5.966935 8.092907 2.157876 0.000000 0.000000 0.000000 -4.755213 -2.416242 -17.656277 -0.929080 -8.889120 33.373791 -6.538109 -15.581577 1.342210 0.000000 0.000000 0.000000 -0.900934 -0.598769 8.299787 0.247055 -2.367369 5.045951 -5.538957 13.446135 6.684819 9.553174 3.379290 -30.212262 0.000000 0.000000 0.000000 -21.607679 -38.531453 1.828897 -27.743323 -14.132897 4.102697 -164.773803 -64.835872 140.162440 0.000000 0.000000 0.000000 17.679597 27.423066 26.861754 18.058540 35.337867 1.402471 -77.371288 56.071625 -37.191279 0.000000 0.000000 0.000000 
-1.668446 0.935083 -0.586123 -6.375087 66.080787 -4.212484 4.282785 -0.757282 -1.928935 -6.128298 -0.697406 1.291471 5.627856 7.388721 1.693830 0.000000 0.000000 0.000000 -2.108544 -1.679294 -19.048159 1.532669 -10.877677 34.372244 -5.028880 -13.397775 -1.670810 0.000000 0.000000 0.000000 -0.099290 -0.647202 8.337495 0.166617 -1.654516 3.150964 -5.690393 12.123860 8.079836 9.363659 3.481619 -30.431581 0.000000 0.000000 0.000000 -21.853355 -39.114756 2.358048 -28.105260 -13.795322 4.042674 -164.227923 -63.454691 138.334250 0.000000 0.000000 0.000000 18.030950 27.193740 26.777965 17.416170 36.807593 1.353777 -72.480995 55.716423 -33.920801 0.000000 0.000000 0.000000 
-1.647219 0.934762 -0.610724 -4.510797 66.429004 -2.542709 1.720525 -0.396608 -0.981385 -6.833311 -0.786433 1.194777 7.007482 9.419753 2.124616 0.000000 0.000000 0.000000 0.441975 -0.908750 -19.273993 5.843925 -12.574977 31.850965 -5.102091 -14.607649 -3.385914 0.000000 0.000000 0.000000 0.465595 -0.646015 8.064468 0.477397 -1.591355 2.468512 -6.441196 10.919740 8.647746 9.313484 3.515374 -31.001022 0.000000 0.000000 0.000000 -22.469198 -39.722987 2.742714 -28.431689 -14.433299 4.270400 -166.666736 -64.244482 142.652256 0.000000 0.000000 0.000000 18.217004 27.019686 26.657181 19.180338 37.333920 1.772753 -70.426985 55.530599 -32.336321 0.000000 0.000000 0.000000 
-1.625108 0.932956 -0.631998 -2.898512 65.072399 -1.548826 -1.134523 -0.062387 -0.054383 -6.071415 -0.644551 2.903012 8.589249 10.621841 0.917176 0.000000 0.000000 0.000000 3.925323 0.237096 -18.121554 10.267234 -12.003218 25.340104 -6.212583 -16.942205 -1.810407 0.000000 0.000000 0.000000 1.446681 -0.765773 8.455436 0.076749 -1.048136 1.398272 -6.558332 10.294796 8.653662 9.829085 3.038725 -29.842175 0.000000 0.000000 0.000000 -23.548126 -41.297540 3.868943 -28.831802 -13.699168 4.300989 -171.047961 -64.089273 149.661508 0.000000 0.000000 0.000000 20.784933 26.775917 28.007519 18.522848 37.744220 1.211919 -69.032667 57.075276 -33.059326 0.000000 0.000000 0.000000 
-1.600758 0.931123 -0.650234 -1.867338 62.406369 -0.927817 -3.332999 0.114213 -0.342126 -5.232613 -0.604010 6.409579 9.076076 11.814615 1.050420 0.000000 0.000000 0.000000 8.120107 1.325326 -15.916690 9.616711 -8.077440 18.706094 -7.549301 -20.327719 -0.371109 0.000000 0.000000 0.000000 2.825250 -0.815583 7.984770 -0.521486 -0.926359 2.219838 -6.660928 10.084407 7.352396 9.250596 3.122817 -30.335695 0.000000 0.000000 0.000000 -23.674506 -39.719943 4.043908 -30.062229 -16.243762 4.628664 -173.147997 -66.237042 154.553145 0.000000 0.000000 0.000000 22.820811 26.121898 28.279795 19.007173 37.758207 1.015926 -64.766256 59.369990 -32.215378 0.000000 0.000000 0.000000 
-1.574555 0.930394 -0.665401 0.416851 59.079289 0.220526 -4.095992 0.061797 -1.965946 -9.511715 -0.883635 11.123598 11.441955 16.699603 2.866657 0.000000 0.000000 0.000000 9.707866 1.627654 -12.204283 6.058940 -4.554166 14.844237 -7.800889 -22.332989 -0.764813 0.000000 0.000000 0.000000 3.224204 -0.903234 8.388326 -0.416689 -1.139346 3.328968 -7.788719 10.685129 4.906748 10.366927 2.024648 -28.508575 0.000000 0.000000 0.000000 -24.199120 -38.368980 4.236759 -29.511326 -17.985947 4.724855 -174.073564 -68.550529 158.530441 0.000000 0.000000 0.000000 26.860169 23.700050 28.720835 18.904089 36.468351 0.170214 -62.437640 63.677781 -33.895483 0.000000 0.000000 0.000000 
-1.547608 0.929624 -0.677146 -0.312711 54.192783 -0.512770 -3.299284 -0.375003 -6.117000 -12.543248 -1.331394 19.528695 10.050942 16.265729 2.394897 0.000000 0.000000 0.000000 11.684531 1.716037 -10.299800 3.069286 -2.620256 13.573998 -7.260199 -20.308244 0.143582 0.000000 0.000000 0.000000 4.414654 -0.818345 7.057327 -0.601917 -0.941972 3.590463 -6.869972 11.363623 4.445029 8.747598 2.500991 -27.881627 0.000000 0.000000 0.000000 -26.383027 -36.371570 3.237595 -29.751254 -16.603383 4.626547 -172.043688 -69.482506 157.454599 0.000000 0.000000 0.000000 29.225919 24.285173 29.908065 19.406865 32.978602 -0.381202 -56.411571 64.906918 -31.450515 0.000000 0.000000 0.000000 
-1.520675 0.930153 -0.685236 -0.992531 49.619336 -2.099975 0.929044 -0.960708 -10.453473 -18.026517 -1.482425 30.172515 7.790552 14.799571 2.967473 0.000000 0.000000 0.000000 11.246413 1.201919 -5.661601 1.357167 -1.280620 10.696802 -5.440211 -17.264243 -2.258140 0.000000 0.000000 0.000000 5.507380 -0.804547 6.360609 -1.056051 -0.296620 2.536277 -5.688431 12.019235 5.944791 7.445630 2.884229 -27.286756 0.000000 0.000000 0.000000 -25.615904 -35.994959 3.921376 -29.877719 -17.920134 4.590001 179.795173 -73.514513 169.612056 0.000000 0.000000 0.000000 30.414783 22.860195 28.959848 22.082268 29.850181 -0.581533 -55.564974 68.751360 -33.077179 0.000000 0.000000 0.000000 
-1.494250 0.932054 -0.689999 -1.627972 44.722997 -4.442564 4.767244 -1.130672 -11.809363 -15.966217 -1.474239 32.542447 8.153740 14.586485 0.425911 0.000000 0.000000 0.000000 10.625579 0.381137 -0.887956 0.001642 -0.431582 8.128029 -3.481906 -10.723274 -0.812644 0.000000 0.000000 0.000000 5.898691 -0.881507 6.996005 -1.203540 0.086099 1.722815 -4.736307 12.696063 6.692373 7.927537 2.429314 -26.678561 0.000000 0.000000 0.000000 -25.657737 -35.335288 4.231692 -29.347106 -17.562899 4.255831 177.431131 -74.012502 173.566783 0.000000 0.000000 0.000000 31.120591 20.772234 27.172581 24.462117 27.381996 -0.798475 -56.468031 73.860850 -36.553801 0.000000 0.000000 0.000000 
-1.467593 0.934547 -0.693056 -1.619342 39.089222 -4.864701 6.752792 -1.069533 -11.597564 -6.346691 -2.359513 28.031482 4.646009 6.318762 -3.040266 0.000000 0.000000 0.000000 8.662282 -0.162541 1.762200 -1.228635 0.084751 6.977769 -0.589666 -2.405352 -1.538013 0.000000 0.000000 0.000000 5.773530 -0.642731 5.605079 -1.016034 -0.015663 2.463096 -3.893248 11.944958 6.716146 7.311894 2.181568 -26.130059 0.000000 0.000000 0.000000 -25.275864 -33.924015 5.173516 -28.157542 -19.040326 3.951034 168.534130 -75.967439 -173.349520 0.000000 0.000000 0.000000 31.744386 20.240843 25.551966 26.691648 24.535507 -0.993247 -58.345596 78.495879 -41.002628 0.000000 0.000000 0.000000 
-1.439870 0.935468 -0.695749 -1.819719 33.930416 -6.386762 8.721200 -0.808169 -8.144243 0.796373 -1.992474 18.115365 0.450447 0.027253 -0.652051 0.000000 0.000000 0.000000 6.816661 -0.989853 5.864448 -1.062462 0.186241 3.892109 0.904948 2.111734 -1.225343 0.000000 0.000000 0.000000 5.508644 -0.631728 6.135307 -0.329987 -0.205864 2.236864 -3.942825 11.422721 7.780551 8.781610 1.069266 -26.084512 0.000000 0.000000 0.000000 -23.839396 -33.406185 6.377574 -26.659800 -20.112300 3.479033 156.897462 -75.443496 -157.318357 0.000000 0.000000 0.000000 32.383168 18.564232 23.348880 28.331863 23.816996 -1.015547 -52.097678 83.233033 -38.286115 0.000000 0.000000 0.000000 
-1.411134 0.934956 -0.699297 -1.234806 28.580872 -5.846991 8.842549 -0.636057 -4.966317 2.357565 -1.117188 10.700848 -1.669434 -2.281349 1.445781 0.000000 0.000000 0.000000 3.870325 -0.939851 6.126951 -0.509681 0.116841 4.063956 3.290948 9.166518 -2.112171 0.000000 0.000000 0.000000 5.076722 -0.370863 4.222758 -0.901096 -0.126995 4.207212 -2.564769 8.489011 6.746328 6.166773 1.604125 -26.223727 0.000000 0.000000 0.000000 -23.516927 -31.305641 7.775217 -24.837186 -22.093052 2.925817 147.384904 -76.813609 -143.286133 0.000000 0.000000 0.000000 31.277544 19.114702 20.528899 30.280690 20.329906 -0.982446 -28.685949 85.359209 -18.260570 0.000000 0.000000 0.000000 
-1.382011 0.934007 -0.703913 -1.207417 21.889524 -4.967115 8.489518 -0.483069 -2.785526 3.106094 -0.739976 6.270267 -3.089327 -3.548564 3.462824 0.000000 0.000000 0.000000 1.430124 -0.702639 5.200182 -0.455012 0.155668 4.657907 4.836206 13.606221 -1.932250 0.000000 0.000000 0.000000 5.501753 -0.244555 2.774361 -0.622188 -0.102346 3.807482 -2.562994 7.323905 7.204303 5.980909 1.051995 -25.438616 0.000000 0.000000 0.000000 -22.981095 -31.554224 9.644429 -22.839682 -20.609436 2.020589 138.750156 -74.837959 -129.524692 0.000000 0.000000 0.000000 31.421634 18.704757 18.656526 31.937920 17.408957 -1.356685 -14.544060 86.631404 -5.432978 0.000000 0.000000 0.000000 
-1.354405 0.934164 -0.709613 -0.902250 15.923854 -4.395977 8.362413 -0.354000 -1.004666 2.370109 -0.467467 4.056915 -2.395244 -2.087909 3.966502 0.000000 0.000000 0.000000 -0.585240 -0.378380 3.183555 -1.065049 0.333302 6.028731 5.920378 16.442989 -1.518879 0.000000 0.000000 0.000000 5.736556 -0.167237 1.933323 -1.169214 0.254709 4.075240 -2.403685 5.380548 6.809188 4.360757 1.223637 -25.263311 0.000000 0.000000 0.000000 -22.396580 -30.565150 10.887846 -22.330739 -21.123448 1.607364 134.561353 -74.524694 -122.414615 0.000000 0.000000 0.000000 31.371773 19.249974 16.915705 33.530065 14.728247 -1.498082 7.101626 86.399847 14.203471 0.000000 0.000000 0.000000 
-1.328924 0.935325 -0.715196 -0.810711 10.345555 -3.686714 7.636440 -0.220098 -0.250153 1.732372 -0.352545 3.399993 -0.327121 1.406266 3.585305 0.000000 0.000000 0.000000 -1.633444 -0.133284 1.200213 -1.579759 0.478223 6.552708 6.536762 17.310596 -0.343619 0.000000 0.000000 0.000000 6.149220 -0.128436 1.423052 -1.251587 0.371956 4.324564 -2.521684 3.866629 6.283325 3.917194 0.865052 -24.841474 0.000000 0.000000 0.000000 -21.044827 -30.241935 12.099743 -22.408399 -22.044028 1.376342 123.974175 -71.842671 -106.033263 0.000000 0.000000 0.000000 30.626196 19.541653 14.984759 34.749518 13.241018 -1.332512 19.808340 87.037791 25.645103 0.000000 0.000000 0.000000 
-1.306190 0.936941 -0.720329 -0.843139 5.619660 -2.799314 6.813107 -0.119998 0.173211 1.304096 -0.255503 2.522943 1.424028 4.624050 3.698177 0.000000 0.000000 0.000000 -2.229243 0.089565 -0.998191 -1.666567 0.514561 6.513744 5.957146 15.341682 0.254905 0.000000 0.000000 0.000000 6.505634 -0.061554 0.601121 -1.450931 0.526834 5.050733 -2.362429 1.761488 5.151417 2.709757 0.856445 -24.072249 0.000000 0.000000 0.000000 -21.042753 -29.760594 13.340677 -22.958405 -23.119346 1.301652 118.544808 -69.602431 -95.933390 0.000000 0.000000 0.000000 29.271575 20.223301 13.052439 36.861408 11.354709 -1.140976 35.106990 86.714991 38.801398 0.000000 0.000000 0.000000 
-1.285608 0.938136 -0.724379 -1.011835 2.006353 -2.341943 6.228511 -0.065994 -0.000637 0.428998 -0.144974 2.513725 3.316919 8.088173 3.642291 0.000000 0.000000 0.000000 -2.296743 0.206073 -2.201235 -1.270110 0.495890 7.221061 4.920993 12.820214 0.025938 0.000000 0.000000 0.000000 6.490398 -0.060362 0.593213 -1.306233 0.509364 5.487827 -2.222820 0.580539 4.452168 2.595535 0.551396 -23.965243 0.000000 0.000000 0.000000 -21.371594 -29.711047 14.388812 -23.622315 -24.904862 1.470977 112.078506 -67.735095 -85.852648 0.000000 0.000000 0.000000 29.746251 20.658387 12.025585 36.858916 9.367614 -1.223876 22.420132 86.177809 25.337211 0.000000 0.000000 0.000000 
